<?xml version="1.0" encoding="UTF-8"?>
<!DOCTYPE svg PUBLIC "-//W3C//DTD SVG 1.1//EN" "http://www.w3.org/Graphics/SVG/1.1/DTD/svg11.dtd">
<!-- Creator: CorelDRAW -->
<svg xmlns="http://www.w3.org/2000/svg" xml:space="preserve" width="540mm" height="110mm" version="1.1" style="shape-rendering:geometricPrecision; text-rendering:geometricPrecision; image-rendering:optimizeQuality; fill-rule:evenodd; clip-rule:evenodd"
viewBox="3600 25000 54000 11000"
 xmlns:xlink="http://www.w3.org/1999/xlink"
 xmlns:xodm="http://www.corel.com/coreldraw/odm/2003">
 <defs>
  <style type="text/css">
   <![CDATA[
    .fil2 {fill:#FEFEFE}
    .fil1 {fill:#CFBC8C}
    .fil3 {fill:#FEFEFE;fill-rule:nonzero}
    .fil0 {fill:#CFBC8C;fill-rule:nonzero}
   ]]>
  </style>
 </defs>
 <g id="Слой_x0020_1">
  <metadata id="CorelCorpID_0Corel-Layer"/>
  <g id="_1912230327760">
   <path class="fil0" d="M13793.32 33452.85l-298.83 0 -34.9 290.1 -167.95 0 172.32 -1513.75 357.71 0 174.49 1513.75 -170.13 0 -32.71 -290.1zm-17.46 -152.68l-104.69 -903.02 -56.71 0 -102.52 903.02 263.92 0zm1720.15 -1070.97l0 1513.75 -167.95 0 0 -1345.8 -191.94 0 -50.17 1136.4c-2.91,69.8 -17.81,122.15 -44.71,157.05 -26.91,34.9 -75.26,52.35 -145.05,52.35l-91.61 0 0 -167.96 69.79 0c17.45,0 28.72,-2.54 33.81,-7.63 5.09,-5.09 8.36,-16.36 9.82,-33.81l56.71 -1304.35 521.3 0zm956.73 0l503.86 0 0 167.95 -335.9 0 0 311.91 253.01 0 0 170.14 -253.01 0 0 695.79 335.9 0 0 167.96 -503.86 0 0 -1513.75zm1423.51 0l167.95 0 0 495.13 143.96 0 165.77 -495.13 178.85 0 -189.76 567.11 202.85 946.64 -172.31 0 -187.58 -876.84 -141.78 0 0 876.84 -167.95 0 0 -1513.75zm1951.35 865.93l167.95 0 0 427.52c0,31.99 -4.36,62.16 -13.09,90.52 -8.72,28.35 -22.17,53.07 -40.35,74.16 -18.17,21.08 -42.17,37.8 -71.98,50.16 -29.8,12.36 -65.79,18.54 -107.96,18.54l-126.51 0c-42.17,0 -78.16,-6.18 -107.97,-18.54 -29.81,-12.36 -53.8,-29.08 -71.98,-50.16 -18.18,-21.09 -31.63,-45.81 -40.35,-74.16 -8.73,-28.36 -13.09,-58.53 -13.09,-90.52l0 -1073.15c0,-31.99 4.36,-62.16 13.09,-90.52 8.72,-28.35 22.17,-53.07 40.35,-74.16 18.18,-21.08 42.17,-37.8 71.98,-50.16 29.81,-12.36 65.8,-18.54 107.97,-18.54l126.51 0c42.17,0 78.16,6.18 107.96,18.54 29.81,12.36 53.81,29.08 71.98,50.16 18.18,21.09 31.63,45.81 40.35,74.16 8.73,28.36 13.09,58.53 13.09,90.52l0 292.28 -167.95 0 0 -292.28c0,-17.44 -5.09,-32.71 -15.27,-45.8 -10.18,-13.09 -26.9,-19.63 -50.16,-19.63l-126.51 0c-23.27,0 -39.99,6.54 -50.17,19.63 -10.18,13.09 -15.27,28.36 -15.27,45.8l0 1073.15c0,17.45 5.09,32.71 15.27,45.8 10.18,13.09 26.9,19.63 50.17,19.63l126.51 0c23.26,0 39.98,-6.54 50.16,-19.63 10.18,-13.09 15.27,-28.35 15.27,-45.8l0 -427.52zm1602.37 647.82l-32.72 -290.1 -298.82 0 -34.9 290.1 -167.95 0 172.31 -1513.75 357.71 0 174.5 1513.75 -170.13 0zm-314.09 -442.78l263.92 0 -104.7 -903.02 -56.71 0 -102.51 903.02zm1818.3 -588.92l0 -482.05 167.95 0 0 1513.75 -167.95 0 0 -863.75 -259.56 0 0 863.75 -167.96 0 0 -1513.75 167.96 0 0 482.05 259.56 0zm1853.2 863.74l0 368.63 -115.61 0 -32.72 -200.67 -521.3 0 -15.27 200.67 -135.23 0 0 -368.63 98.15 0c30.54,-20.35 46.53,-53.8 47.99,-100.33l50.17 -1245.46 508.21 0 0 1345.79 115.61 0zm-283.56 0l0 -1177.84 -178.85 0 -45.81 1084.06c-2.91,37.8 -14.54,69.07 -34.9,93.78l259.56 0zm1707.06 -545.29c0,42.17 -6.18,78.16 -18.54,107.97 -12.36,29.81 -29.44,53.8 -51.25,71.98 -21.82,18.17 -46.9,31.62 -75.26,40.35 -28.35,8.72 -58.52,13.09 -90.52,13.09l-154.86 0 0 479.86 -167.95 0 0 -1513.75 322.81 0c42.17,0 78.16,6.18 107.97,18.54 29.81,12.37 54.17,29.09 73.07,50.17 18.91,21.09 32.72,45.81 41.44,74.16 8.73,28.36 13.09,58.53 13.09,90.52l0 567.11zm-170.13 -567.11c0,-17.45 -4.73,-32.72 -14.18,-45.8 -9.45,-13.09 -26.54,-19.64 -51.26,-19.64l-154.86 0 0 697.98 154.86 0c18.91,0 34.54,-4.72 46.9,-14.17 12.36,-9.46 18.54,-26.54 18.54,-51.26l0 -567.11zm1425.69 246.47c42.17,0 78.16,6.19 107.96,18.54 29.81,12.37 53.81,29.09 71.98,50.17 18.18,21.09 31.63,45.81 40.35,74.16 8.73,28.36 13.09,58.53 13.09,90.52l0 567.11c0,42.17 -6.18,78.16 -18.54,107.97 -12.36,29.81 -29.08,53.8 -50.16,71.98 -21.09,18.17 -45.81,31.63 -74.17,40.35 -28.35,8.73 -58.52,13.09 -90.51,13.09l-327.18 0 0 -1513.75 167.95 0 0 479.86 159.23 0zm65.43 233.39c0,-18.9 -4.72,-34.53 -14.18,-46.89 -9.45,-12.36 -26.53,-18.54 -51.25,-18.54l-159.23 0 0 697.97 159.23 0c18.9,0 34.53,-4.72 46.89,-14.17 12.36,-9.45 18.54,-26.54 18.54,-51.26l0 -567.11zm536.57 -713.25l0 1513.75 -167.95 0 0 -1513.75 167.95 0zm1844.48 0l0 167.95 -338.08 0 0 1345.8 -167.96 0 0 -1513.75 506.04 0zm1238.11 -13.08c42.17,0 78.15,6.18 107.97,18.54 29.8,12.36 53.8,29.08 71.97,50.16 18.18,21.09 31.63,45.81 40.36,74.16 8.72,28.36 13.08,58.53 13.08,90.52l0 1073.15c0,31.99 -4.36,62.16 -13.08,90.52 -8.73,28.35 -22.18,53.07 -40.36,74.16 -18.17,21.08 -42.17,37.8 -71.97,50.16 -29.82,12.36 -65.8,18.54 -107.97,18.54l-128.69 0c-42.17,0 -78.16,-6.18 -107.97,-18.54 -29.81,-12.36 -53.81,-29.08 -71.98,-50.16 -18.18,-21.09 -31.63,-45.81 -40.35,-74.16 -8.73,-28.36 -13.09,-58.53 -13.09,-90.52l0 -1073.15c0,-31.99 4.36,-62.16 13.09,-90.52 8.72,-28.35 22.17,-53.07 40.35,-74.16 18.17,-21.08 42.17,-37.8 71.98,-50.16 29.81,-12.36 65.8,-18.54 107.97,-18.54l128.69 0zm0 1371.96c23.26,0 39.99,-6.54 50.16,-19.63 10.18,-13.09 15.27,-28.35 15.27,-45.8l0 -1073.15c0,-17.44 -5.09,-32.71 -15.27,-45.8 -10.17,-13.09 -26.9,-19.63 -50.16,-19.63l-128.69 0c-24.72,0 -41.81,6.54 -51.26,19.63 -9.45,13.09 -14.18,28.36 -14.18,45.8l0 1073.15c0,17.45 4.73,32.71 14.18,45.8 9.45,13.09 26.54,19.63 51.26,19.63l128.69 0zm1731.05 -558.38c0,42.17 -6.18,78.16 -18.54,107.97 -12.36,29.81 -29.45,53.8 -51.26,71.98 -21.81,18.17 -46.89,31.62 -75.25,40.35 -28.36,8.72 -58.53,13.09 -90.52,13.09l-154.86 0 0 479.86 -167.96 0 0 -1513.75 322.82 0c42.17,0 78.16,6.18 107.97,18.54 29.81,12.37 54.17,29.09 73.07,50.17 18.9,21.09 32.72,45.81 41.44,74.16 8.73,28.36 13.09,58.53 13.09,90.52l0 567.11zm-170.14 -567.11c0,-17.45 -4.72,-32.72 -14.17,-45.8 -9.45,-13.09 -26.54,-19.64 -51.26,-19.64l-154.86 0 0 697.98 154.86 0c18.9,0 34.54,-4.72 46.89,-14.17 12.37,-9.46 18.54,-26.54 18.54,-51.26l0 -567.11zm1098.51 -233.39l503.86 0 0 167.95 -335.9 0 0 311.91 253.01 0 0 170.14 -253.01 0 0 695.79 335.9 0 0 167.96 -503.86 0 0 -1513.75zm1748.5 0c42.17,0 78.17,6.18 107.97,18.54 29.81,12.37 53.81,29.09 71.98,50.17 18.18,21.09 31.63,45.81 40.35,74.16 8.73,28.36 13.09,58.53 13.09,90.52l0 106.88c0,68.34 -11.99,119.6 -35.99,153.77 -23.99,34.18 -55.62,57.81 -94.88,70.89 39.26,14.54 70.89,38.9 94.88,73.07 24,34.17 35.99,85.43 35.99,153.78l0 488.58c0,42.17 -6.18,78.16 -18.54,107.97 -12.36,29.81 -29.08,53.8 -50.16,71.98 -21.09,18.17 -45.81,31.63 -74.17,40.35 -28.35,8.73 -58.52,13.09 -90.52,13.09l-324.99 0 0 -1513.75 324.99 0zm65.44 769.96c0,-37.8 -10.54,-67.25 -31.62,-88.33 -21.09,-21.09 -46.9,-31.63 -77.44,-31.63l-113.42 0 0 695.79 157.04 0c18.91,0 34.54,-4.72 46.9,-14.17 12.36,-9.45 18.54,-26.54 18.54,-51.26l0 -510.4zm0 -536.57c0,-17.45 -4.72,-32.72 -14.18,-45.8 -9.45,-13.09 -26.53,-19.64 -51.26,-19.64l-157.04 0 0 314.1 113.42 0c30.54,0 56.35,-10.55 77.44,-31.63 21.08,-21.09 31.62,-50.53 31.62,-88.34l0 -128.69zm1445.32 -246.47c42.17,0 78.16,6.18 107.97,18.54 29.81,12.36 53.8,29.08 71.98,50.16 18.18,21.09 31.63,45.81 40.35,74.16 8.72,28.36 13.09,58.53 13.09,90.52l0 1073.15c0,31.99 -4.37,62.16 -13.09,90.52 -8.72,28.35 -22.17,53.07 -40.35,74.16 -18.18,21.08 -42.17,37.8 -71.98,50.16 -29.81,12.36 -65.8,18.54 -107.97,18.54l-128.69 0c-42.17,0 -78.16,-6.18 -107.97,-18.54 -29.81,-12.36 -53.8,-29.08 -71.98,-50.16 -18.17,-21.09 -31.63,-45.81 -40.35,-74.16 -8.72,-28.36 -13.09,-58.53 -13.09,-90.52l0 -1073.15c0,-31.99 4.37,-62.16 13.09,-90.52 8.72,-28.35 22.18,-53.07 40.35,-74.16 18.18,-21.08 42.17,-37.8 71.98,-50.16 29.81,-12.36 65.8,-18.54 107.97,-18.54l128.69 0zm0 1371.96c23.27,0 39.99,-6.54 50.17,-19.63 10.18,-13.09 15.27,-28.35 15.27,-45.8l0 -1073.15c0,-17.44 -5.09,-32.71 -15.27,-45.8 -10.18,-13.09 -26.9,-19.63 -50.17,-19.63l-128.69 0c-24.72,0 -41.81,6.54 -51.26,19.63 -9.45,13.09 -14.17,28.36 -14.17,45.8l0 1073.15c0,17.45 4.72,32.71 14.17,45.8 9.45,13.09 26.54,19.63 51.26,19.63l128.69 0zm1624.17 -1629.34l0 111.24 -318.45 0 0 -111.24 318.45 0zm-34.89 1784.21l0 -961.9 -248.66 250.83 0 711.07 -167.95 0 0 -1513.75 167.95 0 0 599.83 248.66 -259.56 0 -340.27 167.95 0 0 1513.75 -167.95 0zm1502.03 -879.02l-420.97 0 0 -143.96 420.97 0 0 143.96zm910.92 -634.73l167.96 0 0 495.13 143.95 0 165.77 -495.13 178.86 0 -189.76 567.11 202.85 946.64 -172.32 0 -187.58 -876.84 -141.77 0 0 876.84 -167.96 0 0 -1513.75zm2003.71 1319.62c-10.18,55.26 -33.81,101.43 -70.89,138.51 -37.08,37.08 -90.52,55.62 -160.32,55.62l-117.78 0 0 -167.96 117.78 0c18.9,0 33.45,-4.36 43.62,-13.08 10.18,-8.73 16.73,-18.9 19.63,-30.54l50.17 -270.46 -150.5 0 -235.57 -1031.71 172.32 0 183.21 863.75 58.9 0 157.04 -863.75 170.14 0 -237.75 1319.62zm1678.7 -519.12c0,42.17 -6.18,78.16 -18.54,107.97 -12.36,29.81 -29.44,53.8 -51.26,71.98 -21.81,18.17 -46.89,31.62 -75.25,40.35 -28.35,8.72 -58.53,13.09 -90.52,13.09l-154.86 0 0 479.86 -167.95 0 0 -1513.75 322.81 0c42.17,0 78.16,6.18 107.97,18.54 29.81,12.37 54.17,29.09 73.07,50.17 18.91,21.09 32.72,45.81 41.44,74.16 8.73,28.36 13.09,58.53 13.09,90.52l0 567.11zm-170.13 -567.11c0,-17.45 -4.73,-32.72 -14.18,-45.8 -9.45,-13.09 -26.54,-19.64 -51.26,-19.64l-154.86 0 0 697.98 154.86 0c18.91,0 34.54,-4.72 46.9,-14.17 12.36,-9.46 18.54,-26.54 18.54,-51.26l0 -567.11zm1024.35 -233.39l721.97 0 0 167.95 -277.01 0 0 1345.8 -167.95 0 0 -1345.8 -277.01 0 0 -167.95zm1936.08 479.86c42.17,0 78.16,6.19 107.97,18.54 29.81,12.37 53.8,29.09 71.98,50.17 18.18,21.09 31.63,45.81 40.35,74.16 8.73,28.36 13.09,58.53 13.09,90.52l0 567.11c0,42.17 -6.18,78.16 -18.54,107.97 -12.36,29.81 -29.08,53.8 -50.17,71.98 -21.08,18.17 -45.8,31.63 -74.16,40.35 -28.35,8.73 -58.53,13.09 -90.52,13.09l-327.17 0 0 -1513.75 167.95 0 0 479.86 159.22 0zm65.44 233.39c0,-18.9 -4.73,-34.53 -14.18,-46.89 -9.45,-12.36 -26.54,-18.54 -51.26,-18.54l-159.22 0 0 697.97 159.22 0c18.91,0 34.54,-4.72 46.9,-14.17 12.36,-9.45 18.54,-26.54 18.54,-51.26l0 -567.11zm536.57 -713.25l0 1513.75 -167.95 0 0 -1513.75 167.95 0zm1755.05 1345.79l0 -1345.79 167.95 0 0 1513.75 -966.27 0 0 -1513.75 167.96 0 0 1345.79 231.2 0 0 -1345.79 167.95 0 0 1345.79 231.21 0zm1124.68 -1345.79l503.86 0 0 167.95 -335.9 0 0 311.91 253.01 0 0 170.14 -253.01 0 0 695.79 335.9 0 0 167.96 -503.86 0 0 -1513.75zm1748.5 0c42.17,0 78.16,6.18 107.97,18.54 29.81,12.37 53.81,29.09 71.98,50.17 18.18,21.09 31.63,45.81 40.35,74.16 8.73,28.36 13.09,58.53 13.09,90.52l0 106.88c0,68.34 -12,119.6 -35.99,153.77 -23.99,34.18 -55.62,57.81 -94.88,70.89 39.26,14.54 70.89,38.9 94.88,73.07 23.99,34.17 35.99,85.43 35.99,153.78l0 488.58c0,42.17 -6.18,78.16 -18.54,107.97 -12.36,29.81 -29.08,53.8 -50.17,71.98 -21.08,18.17 -45.8,31.63 -74.16,40.35 -28.35,8.73 -58.53,13.09 -90.52,13.09l-324.99 0 0 -1513.75 324.99 0zm65.44 769.96c0,-37.8 -10.54,-67.25 -31.63,-88.33 -21.08,-21.09 -46.89,-31.63 -77.43,-31.63l-113.42 0 0 695.79 157.04 0c18.91,0 34.54,-4.72 46.9,-14.17 12.36,-9.45 18.54,-26.54 18.54,-51.26l0 -510.4zm0 -536.57c0,-17.45 -4.72,-32.72 -14.18,-45.8 -9.45,-13.09 -26.54,-19.64 -51.26,-19.64l-157.04 0 0 314.1 113.42 0c30.54,0 56.35,-10.55 77.43,-31.63 21.09,-21.09 31.63,-50.53 31.63,-88.34l0 -128.69zm1445.32 -246.47c42.17,0 78.16,6.18 107.97,18.54 29.81,12.36 53.8,29.08 71.98,50.16 18.17,21.09 31.62,45.81 40.35,74.16 8.72,28.36 13.08,58.53 13.08,90.52l0 1073.15c0,31.99 -4.36,62.16 -13.08,90.52 -8.73,28.35 -22.18,53.07 -40.35,74.16 -18.18,21.08 -42.17,37.8 -71.98,50.16 -29.81,12.36 -65.8,18.54 -107.97,18.54l-128.69 0c-42.17,0 -78.16,-6.18 -107.97,-18.54 -29.81,-12.36 -53.8,-29.08 -71.98,-50.16 -18.17,-21.09 -31.63,-45.81 -40.35,-74.16 -8.73,-28.36 -13.09,-58.53 -13.09,-90.52l0 -1073.15c0,-31.99 4.36,-62.16 13.09,-90.52 8.72,-28.35 22.18,-53.07 40.35,-74.16 18.18,-21.08 42.17,-37.8 71.98,-50.16 29.81,-12.36 65.8,-18.54 107.97,-18.54l128.69 0zm0 1371.96c23.27,0 39.99,-6.54 50.17,-19.63 10.17,-13.09 15.27,-28.35 15.27,-45.8l0 -1073.15c0,-17.44 -5.1,-32.71 -15.27,-45.8 -10.18,-13.09 -26.9,-19.63 -50.17,-19.63l-128.69 0c-24.72,0 -41.81,6.54 -51.26,19.63 -9.45,13.09 -14.18,28.36 -14.18,45.8l0 1073.15c0,17.45 4.73,32.71 14.18,45.8 9.45,13.09 26.54,19.63 51.26,19.63l128.69 0zm1624.17 -1629.34l0 111.24 -318.45 0 0 -111.24 318.45 0zm-34.9 1784.21l0 -961.9 -248.65 250.83 0 711.07 -167.95 0 0 -1513.75 167.95 0 0 599.83 248.65 -259.56 0 -340.27 167.96 0 0 1513.75 -167.96 0z"/>
   <path class="fil1" d="M4992.48 31278.7l1276.52 8.14c59.47,0.38 84.81,41.71 56.29,91.85l-865.06 1521.06c-28.77,50.59 -101.31,91.84 -161.19,91.66l-1285.13 -3.93c-60.19,-0.19 -85.66,-41.86 -56.59,-92.6l874.06 -1525.45c28.82,-50.29 101.32,-91.11 161.1,-90.73z"/>
   <path class="fil2" d="M5899.7 27404.31l584.7 -1311.36c20.63,-46.26 99.45,-21.11 128.65,20.27l4781.65 6776.94c29.2,41.39 30.37,128.18 -20.27,128.65l-1491.54 13.8c-50.64,0.46 -126.13,-25.3 -155.4,-66.63l-3848.06 -5433.03c-29.27,-41.33 -0.36,-82.39 20.27,-128.64z"/>
   <path class="fil2" d="M7637.05 30024.45c681.17,836.31 767.32,2019.52 219.43,2946.46 -26.03,44.04 -107.66,109.59 -189.01,7.64l-1450.68 -1820.79 -1453.4 -1818.62c-81.35,-101.95 0.68,-167 49.4,-182.6 1025.45,-328.5 2159.97,18.13 2824.26,867.91z"/>
   <path class="fil3" d="M13827.3 31318.48l-535.66 0 816.51 -2774.17 644.63 0 815.42 2774.17 -535.66 0 -592.59 -2139.75 -18.43 0 -594.22 2139.75zm-33.07 -1090.22l1265.96 0 0 457.7 -1265.96 0 0 -457.7zm3305.01 1090.22l-760.12 -1182.39 -170.78 0 0 1182.39 -500.42 0 0 -2774.17 500.42 0 0 1108.01 100.3 0 785.6 -1108.01 622.95 0 -923.31 1287.28 965.6 1486.89 -620.24 0zm1094.05 0l-535.66 0 816.51 -2774.17 644.63 0 815.42 2774.17 -535.66 0 -592.59 -2139.75 -18.43 0 -594.22 2139.75zm-33.07 -1090.22l1265.96 0 0 457.7 -1265.96 0 0 -457.7zm1745.74 1759.6l0 -1136.62 160.48 0c54.76,-46.4 104.64,-111.24 150.18,-195.79 45.54,-84.55 84.04,-201.52 116.56,-350.91 32.53,-149.38 55.31,-345.18 69.4,-586.74l67.23 -1173.49 1565.24 0 0 2306.93 258.61 0 0 1133.44 -480.36 0 0 -666.2 -1426.98 0 0 669.38 -480.36 0zm737.89 -1136.62l910.3 0 0 -1823.17 -634.34 0 -36.87 689.73c-9.76,183.08 -26.02,345.82 -48.79,487.58 -22.77,141.76 -50.42,265.72 -82.41,371.24 -31.45,106.16 -67.77,197.7 -107.89,274.62zm1770.13 467.24l-1.08 -2774.17 1594.51 0 0 483.76 -1094.09 -1.27 0 662.39 1011.68 0 0 483.13 -1011.68 -1.27 0 663.66 1098.43 1.28 0 482.49 -1597.77 0zm1807 -2774.17l616.99 0 651.69 1863.85 27.65 0 651.68 -1863.85 616.45 0 0 2774.17 -485.24 0 0 -1805.37 -19.52 0 -612.11 1792.02 -330.18 0 -612.65 -1799.01 -19.52 0 0 1812.36 -485.24 0 0 -2774.17zm2791.58 0l499.34 0 0 1744.98 19.52 0 1022.53 -1744.98 437.52 0 0 2774.17 -499.87 0 0 -1745.62 -17.35 0 -1028.49 1745.62 -433.2 0 0 -2774.17zm4023.39 2774.17l-499.34 0 0 -2294.22 -337.23 0c-95.96,0 -176.2,16.53 -239.64,48.95 -63.43,33.05 -111.14,81.37 -142.58,144.3 -31.45,63.57 -47.72,141.12 -47.72,233.3 0,90.9 16.27,167.19 47.72,228.85 31.44,61.03 78.61,107.43 142.04,137.94 62.89,30.52 142.59,46.41 238.01,46.41l542.71 0 0 471.05 -623.49 0c-181.08,0 -336.14,-34.96 -464.64,-105.53 -128.49,-70.56 -226.62,-171.63 -294.39,-303.86 -67.77,-132.86 -101.93,-290.51 -101.93,-474.86 0,-183.71 33.61,-343.27 100.3,-478.68 66.15,-136.04 163.19,-241.56 289.52,-315.94 126.86,-74.37 279.76,-111.88 458.13,-111.88l932.53 0 0 2774.17zm-1276.81 -1262.49l539.46 0 -575.24 1262.49 -551.93 0 587.71 -1262.49zm2258.63 -1511.68l616.99 0 651.68 1863.85 27.65 0 651.69 -1863.85 616.44 0 0 2774.17 -485.24 0 0 -1805.37 -19.52 0 -612.1 1792.02 -330.18 0 -612.65 -1799.01 -19.52 0 0 1812.36 -485.24 0 0 -2774.17zm2792.66 2774.17l-1.08 -2774.17 1594.51 0 0 483.76 -1094.09 -1.27 0 662.39 1011.68 0 0 483.13 -1011.68 -1.27 0 663.66 1098.43 1.28 0 482.49 -1597.77 0zm1717.01 -2291.68l0 -482.49 1943.12 0 0 483.76 -724.33 -1.27 0 2291.68 -493.37 0 -1.09 -2290.41 -724.33 -1.27zm4148.62 904.59c0,302.59 -48.8,560.05 -145.85,772.37 -97.59,211.69 -229.87,373.79 -397.4,485.67 -167.53,111.25 -355.66,167.19 -564.4,167.19 -210.36,0 -399.04,-55.94 -566.02,-168.46 -166.99,-111.88 -299.28,-273.99 -396.33,-485.67 -97.05,-212.32 -145.3,-469.14 -145.3,-771.1 0,-302.59 48.25,-559.41 145.3,-771.73 97.05,-212.32 229.34,-374.42 396.33,-485.67 166.98,-111.88 355.66,-167.18 566.02,-167.18 208.74,0 396.87,55.3 564.4,167.18 167.53,111.25 299.81,273.35 397.4,485.67 97.05,212.32 145.85,469.14 145.85,771.73zm-506.93 0c0,-195.79 -24.94,-361.07 -74.82,-495.84 -49.33,-134.13 -119.27,-236.47 -209.27,-305.76 -90.55,-69.93 -195.73,-104.26 -316.63,-104.26 -120.9,0 -226.63,34.33 -316.63,104.26 -90,69.29 -159.94,171.63 -209.82,305.76 -49.33,134.77 -74.27,300.05 -74.27,495.84 0,195.8 24.94,361.08 74.27,495.84 49.88,134.77 119.82,236.48 209.82,306.41 90,69.29 195.73,104.25 316.63,104.25 120.9,0 226.08,-34.96 316.63,-104.25 90,-69.93 159.94,-171.64 209.27,-306.41 49.88,-134.76 74.82,-300.04 74.82,-495.84zm564.36 2056.47l0 -1136.62 160.48 0c54.76,-46.4 104.64,-111.24 150.18,-195.79 45.54,-84.55 84.04,-201.52 116.56,-350.91 32.53,-149.38 55.31,-345.18 69.4,-586.74l67.23 -1173.49 1565.24 0 0 2306.93 258.61 0 0 1133.44 -480.36 0 0 -666.2 -1426.98 0 0 669.38 -480.36 0zm737.89 -1136.62l910.3 0 0 -1823.17 -634.34 0 -36.87 689.73c-9.76,183.08 -26.02,345.82 -48.79,487.58 -22.77,141.76 -50.42,265.72 -82.41,371.24 -31.45,106.16 -67.77,197.7 -107.89,274.62zm3943.14 -919.85c0,302.59 -48.8,560.05 -145.85,772.37 -97.58,211.69 -229.87,373.79 -397.4,485.67 -167.53,111.25 -355.66,167.19 -564.4,167.19 -210.36,0 -399.04,-55.94 -566.02,-168.46 -166.99,-111.88 -299.28,-273.99 -396.33,-485.67 -97.04,-212.32 -145.3,-469.14 -145.3,-771.1 0,-302.59 48.26,-559.41 145.3,-771.73 97.05,-212.32 229.34,-374.42 396.33,-485.67 166.98,-111.88 355.66,-167.18 566.02,-167.18 208.74,0 396.87,55.3 564.4,167.18 167.53,111.25 299.82,273.35 397.4,485.67 97.05,212.32 145.85,469.14 145.85,771.73zm-506.93 0c0,-195.79 -24.94,-361.07 -74.82,-495.84 -49.33,-134.13 -119.27,-236.47 -209.27,-305.76 -90.54,-69.93 -195.73,-104.26 -316.63,-104.26 -120.9,0 -226.62,34.33 -316.62,104.26 -90,69.29 -159.94,171.63 -209.82,305.76 -49.34,134.77 -74.28,300.05 -74.28,495.84 0,195.8 24.94,361.08 74.28,495.84 49.88,134.77 119.82,236.48 209.82,306.41 90,69.29 195.72,104.25 316.62,104.25 120.9,0 226.09,-34.96 316.63,-104.25 90,-69.93 159.94,-171.64 209.27,-306.41 49.88,-134.76 74.82,-300.04 74.82,-495.84zm564.36 1387.09l0 -471.05 66.68 -7c86.21,-8.26 156.15,-47.04 209.28,-115.69 53.13,-69.29 93.25,-179.9 119.82,-331.83 26.57,-152.57 43.37,-357.26 50.96,-614.72l39.58 -1233.88 1605.36 0 0 2774.17 -486.33 0 0 -2303.76 -654.93 0 -36.87 965.62c-12.47,310.86 -43.37,564.5 -94.34,760.93 -50.42,197.06 -130.12,342.63 -240.18,436.08 -109.52,94.08 -259.7,141.13 -450,141.13l-129.03 0zm4492.9 -1387.09c0,302.59 -48.8,560.05 -145.85,772.37 -97.59,211.69 -229.88,373.79 -397.41,485.67 -167.53,111.25 -355.66,167.19 -564.39,167.19 -210.36,0 -399.04,-55.94 -566.02,-168.46 -166.99,-111.88 -299.28,-273.99 -396.33,-485.67 -97.05,-212.32 -145.3,-469.14 -145.3,-771.1 0,-302.59 48.25,-559.41 145.3,-771.73 97.05,-212.32 229.34,-374.42 396.33,-485.67 166.98,-111.88 355.66,-167.18 566.02,-167.18 208.73,0 396.86,55.3 564.39,167.18 167.53,111.25 299.82,273.35 397.41,485.67 97.05,212.32 145.85,469.14 145.85,771.73zm-506.93 0c0,-195.79 -24.94,-361.07 -74.82,-495.84 -49.34,-134.13 -119.28,-236.47 -209.28,-305.76 -90.54,-69.93 -195.72,-104.26 -316.62,-104.26 -120.9,0 -226.63,34.33 -316.63,104.26 -90,69.29 -159.94,171.63 -209.82,305.76 -49.33,134.77 -74.27,300.05 -74.27,495.84 0,195.8 24.94,361.08 74.27,495.84 49.88,134.77 119.82,236.48 209.82,306.41 90,69.29 195.73,104.25 316.63,104.25 120.9,0 226.08,-34.96 316.62,-104.25 90,-69.93 159.94,-171.64 209.28,-306.41 49.88,-134.76 74.82,-300.04 74.82,-495.84zm2261.34 -1387.08l1.08 483.76 -1069.69 -1.27 0 2291.68 -499.34 0 -1.09 -2774.17 1569.04 0zm137.67 0l499.33 0 0 1744.98 19.52 0 1022.53 -1744.98 437.53 0 0 2774.17 -499.88 0 0 -1745.62 -17.35 0 -1028.49 1745.62 -433.19 0 0 -2774.17zm2207.12 0l499.34 0 0 1744.98 19.51 0 1022.53 -1744.98 437.53 0 0 2774.17 -499.88 0 0 -1745.62 -17.35 0 -1028.49 1745.62 -433.19 0 0 -2774.17z"/>
  </g>
 </g>
</svg>
